<svg xmlns="http://www.w3.org/2000/svg" xmlns:xlink="http://www.w3.org/1999/xlink" id="processonSvg1000" viewBox="60.75 53.0 764.25 806.5" width="764.25" height="806.5"><defs id="ProcessOnDefs1001"><marker id="ProcessOnMarker1011" markerUnits="userSpaceOnUse" orient="auto" markerWidth="16.23606797749979" markerHeight="10.550836550532098" viewBox="-1.0 -1.3763819204711736 16.23606797749979 10.550836550532098" refX="-1.0" refY="3.8990363547948754"><path id="ProcessOnPath1012" d="M12.0 3.8990363547948754L0.0 7.798072709589751V0.0Z" stroke="#323232" stroke-width="2.0" fill="#323232" transform="matrix(1.0,0.0,0.0,1.0,0.0,0.0)"/></marker><marker id="ProcessOnMarker1024" markerUnits="userSpaceOnUse" orient="auto" markerWidth="16.23606797749979" markerHeight="10.550836550532098" viewBox="-1.0 -1.3763819204711736 16.23606797749979 10.550836550532098" refX="-1.0" refY="3.8990363547948754"><path id="ProcessOnPath1025" d="M12.0 3.8990363547948754L0.0 7.798072709589751V0.0Z" stroke="#323232" stroke-width="2.0" fill="#323232" transform="matrix(1.0,0.0,0.0,1.0,0.0,0.0)"/></marker><marker id="ProcessOnMarker1032" markerUnits="userSpaceOnUse" orient="auto" markerWidth="16.23606797749979" markerHeight="10.550836550532098" viewBox="-1.0 -1.3763819204711736 16.23606797749979 10.550836550532098" refX="-1.0" refY="3.8990363547948754"><path id="ProcessOnPath1033" d="M12.0 3.8990363547948754L0.0 7.798072709589751V0.0Z" stroke="#323232" stroke-width="2.0" fill="#323232" transform="matrix(1.0,0.0,0.0,1.0,0.0,0.0)"/></marker><marker id="ProcessOnMarker1045" markerUnits="userSpaceOnUse" orient="auto" markerWidth="16.23606797749979" markerHeight="10.550836550532098" viewBox="-1.0 -1.3763819204711736 16.23606797749979 10.550836550532098" refX="-1.0" refY="3.8990363547948754"><path id="ProcessOnPath1046" d="M12.0 3.8990363547948754L0.0 7.798072709589751V0.0Z" stroke="#323232" stroke-width="2.0" fill="#323232" transform="matrix(1.0,0.0,0.0,1.0,0.0,0.0)"/></marker><marker id="ProcessOnMarker1053" markerUnits="userSpaceOnUse" orient="auto" markerWidth="16.23606797749979" markerHeight="10.550836550532098" viewBox="-1.0 -1.3763819204711736 16.23606797749979 10.550836550532098" refX="-1.0" refY="3.8990363547948754"><path id="ProcessOnPath1054" d="M12.0 3.8990363547948754L0.0 7.798072709589751V0.0Z" stroke="#323232" stroke-width="2.0" fill="#323232" transform="matrix(1.0,0.0,0.0,1.0,0.0,0.0)"/></marker><marker id="ProcessOnMarker1069" markerUnits="userSpaceOnUse" orient="auto" markerWidth="16.23606797749979" markerHeight="10.550836550532098" viewBox="-1.0 -1.3763819204711736 16.23606797749979 10.550836550532098" refX="-1.0" refY="3.8990363547948754"><path id="ProcessOnPath1070" d="M12.0 3.8990363547948754L0.0 7.798072709589751V0.0Z" stroke="#323232" stroke-width="2.0" fill="#323232" transform="matrix(1.0,0.0,0.0,1.0,0.0,0.0)"/></marker><marker id="ProcessOnMarker1077" markerUnits="userSpaceOnUse" orient="auto" markerWidth="16.23606797749979" markerHeight="10.550836550532098" viewBox="-1.0 -1.3763819204711736 16.23606797749979 10.550836550532098" refX="-1.0" refY="3.8990363547948754"><path id="ProcessOnPath1078" d="M12.0 3.8990363547948754L0.0 7.798072709589751V0.0Z" stroke="#323232" stroke-width="2.0" fill="#323232" transform="matrix(1.0,0.0,0.0,1.0,0.0,0.0)"/></marker><marker id="ProcessOnMarker1089" markerUnits="userSpaceOnUse" orient="auto" markerWidth="16.23606797749979" markerHeight="10.550836550532098" viewBox="-1.0 -1.3763819204711736 16.23606797749979 10.550836550532098" refX="-1.0" refY="3.8990363547948754"><path id="ProcessOnPath1090" d="M12.0 3.8990363547948754L0.0 7.798072709589751V0.0Z" stroke="#323232" stroke-width="2.0" fill="#323232" transform="matrix(1.0,0.0,0.0,1.0,0.0,0.0)"/></marker><marker id="ProcessOnMarker1105" markerUnits="userSpaceOnUse" orient="auto" markerWidth="16.23606797749979" markerHeight="10.550836550532098" viewBox="-1.0 -1.3763819204711736 16.23606797749979 10.550836550532098" refX="-1.0" refY="3.8990363547948754"><path id="ProcessOnPath1106" d="M12.0 3.8990363547948754L0.0 7.798072709589751V0.0Z" stroke="#323232" stroke-width="2.0" fill="#323232" transform="matrix(1.0,0.0,0.0,1.0,0.0,0.0)"/></marker><marker id="ProcessOnMarker1113" markerUnits="userSpaceOnUse" orient="auto" markerWidth="16.23606797749979" markerHeight="10.550836550532098" viewBox="-1.0 -1.3763819204711736 16.23606797749979 10.550836550532098" refX="-1.0" refY="3.8990363547948754"><path id="ProcessOnPath1114" d="M12.0 3.8990363547948754L0.0 7.798072709589751V0.0Z" stroke="#323232" stroke-width="2.0" fill="#323232" transform="matrix(1.0,0.0,0.0,1.0,0.0,0.0)"/></marker><marker id="ProcessOnMarker1117" markerUnits="userSpaceOnUse" orient="auto" markerWidth="16.23606797749979" markerHeight="10.550836550532098" viewBox="-1.0 -1.3763819204711736 16.23606797749979 10.550836550532098" refX="-1.0" refY="3.8990363547948754"><path id="ProcessOnPath1118" d="M12.0 3.8990363547948754L0.0 7.798072709589751V0.0Z" stroke="#323232" stroke-width="2.0" fill="#323232" transform="matrix(1.0,0.0,0.0,1.0,0.0,0.0)"/></marker><marker id="ProcessOnMarker1125" markerUnits="userSpaceOnUse" orient="auto" markerWidth="16.23606797749979" markerHeight="10.550836550532098" viewBox="-1.0 -1.3763819204711736 16.23606797749979 10.550836550532098" refX="-1.0" refY="3.8990363547948754"><path id="ProcessOnPath1126" d="M12.0 3.8990363547948754L0.0 7.798072709589751V0.0Z" stroke="#323232" stroke-width="2.0" fill="#323232" transform="matrix(1.0,0.0,0.0,1.0,0.0,0.0)"/></marker><marker id="ProcessOnMarker1133" markerUnits="userSpaceOnUse" orient="auto" markerWidth="16.23606797749979" markerHeight="10.550836550532098" viewBox="-1.0 -1.3763819204711736 16.23606797749979 10.550836550532098" refX="-1.0" refY="3.8990363547948754"><path id="ProcessOnPath1134" d="M12.0 3.8990363547948754L0.0 7.798072709589751V0.0Z" stroke="#323232" stroke-width="2.0" fill="#323232" transform="matrix(1.0,0.0,0.0,1.0,0.0,0.0)"/></marker></defs><g id="ProcessOnG1002"><path id="ProcessOnPath1003" d="M60.75 53.0H825.0V859.5H60.75V53.0Z" fill="#ffffff"/><g id="ProcessOnG1004"><g id="ProcessOnG1005" transform="matrix(1.0,0.0,0.0,1.0,82.0,73.0)" opacity="1.0"><path id="ProcessOnPath1006" d="M11.333333333333334 0.0L95.66666666666667 0.0C110.77777777777777 0.0 110.77777777777777 34.0 95.66666666666667 34.0L11.333333333333334 34.0C-3.777777777777778 34.0 -3.777777777777778 0.0 11.333333333333334 0.0Z" stroke="#323232" stroke-width="2.0" stroke-dasharray="none" fill="#ffffff"/><g id="ProcessOnG1007" transform="matrix(1.0,0.0,0.0,1.0,10.0,8.875)"><text id="ProcessOnText1008" fill="#323232" font-size="13" x="42.5" y="13.325" font-family="Arial" font-weight="normal" font-style="normal" text-decoration="none" family="Arial" text-anchor="middle" size="13">开始</text></g></g><g id="ProcessOnG1009"><path id="ProcessOnPath1010" d="M135.5 107.0L135.5 145.0L135.5 145.0L135.5 167.7639320225002" stroke="#323232" stroke-width="2.0" stroke-dasharray="none" fill="none" marker-end="url(#ProcessOnMarker1011)"/></g><g id="ProcessOnG1013" transform="matrix(1.0,0.0,0.0,1.0,85.5,183.0)" opacity="1.0"><path id="ProcessOnPath1014" d="M0.0 0.0L100.0 0.0L100.0 48.0L0.0 48.0Z" stroke="#323232" stroke-width="2.0" stroke-dasharray="none" fill="#ffffff"/><g id="ProcessOnG1015" transform="matrix(1.0,0.0,0.0,1.0,10.0,7.75)"><text id="ProcessOnText1016" fill="#323232" font-size="13" x="39.0" y="13.325" font-family="Arial" font-weight="normal" font-style="normal" text-decoration="none" family="Arial" text-anchor="middle" size="13">开发人员修改代</text><text id="ProcessOnText1017" fill="#323232" font-size="13" x="39.0" y="29.575" font-family="Arial" font-weight="normal" font-style="normal" text-decoration="none" family="Arial" text-anchor="middle" size="13">码文件</text></g></g><g id="ProcessOnG1018" transform="matrix(1.0,0.0,0.0,1.0,80.75,281.0)" opacity="1.0"><path id="ProcessOnPath1019" d="M0.0 44.5L54.75 0.0L109.5 44.5L54.75 89.0L0.0 44.5Z" stroke="#323232" stroke-width="2.0" stroke-dasharray="none" fill="#ffffff"/><g id="ProcessOnG1020" transform="matrix(1.0,0.0,0.0,1.0,10.0,36.375)"><text id="ProcessOnText1021" fill="#323232" font-size="13" x="43.75" y="13.325" font-family="Arial" font-weight="normal" font-style="normal" text-decoration="none" family="Arial" text-anchor="middle" size="13">代码是否发生变更</text></g></g><g id="ProcessOnG1022"><path id="ProcessOnPath1023" d="M135.5 231.0L135.5 256.0L135.5 256.0L135.5 265.7639320225002" stroke="#323232" stroke-width="2.0" stroke-dasharray="none" fill="none" marker-end="url(#ProcessOnMarker1024)"/></g><g id="ProcessOnG1026" transform="matrix(1.0,0.0,0.0,1.0,273.0,310.25)" opacity="1.0"><path id="ProcessOnPath1027" d="M0.0 0.0L49.0 0.0L49.0 30.5L0.0 30.5Z" stroke="#323232" stroke-width="2.0" stroke-dasharray="none" fill="#ffffff"/><g id="ProcessOnG1028" transform="matrix(1.0,0.0,0.0,1.0,10.0,7.125)"><text id="ProcessOnText1029" fill="#323232" font-size="13" x="13.5" y="13.325" font-family="Arial" font-weight="normal" font-style="normal" text-decoration="none" family="Arial" text-anchor="middle" size="13">终止</text></g></g><g id="ProcessOnG1030"><path id="ProcessOnPath1031" d="M190.25 325.5L231.625 325.5L231.625 325.5L257.7639320225002 325.5" stroke="#323232" stroke-width="2.0" stroke-dasharray="none" fill="none" marker-end="url(#ProcessOnMarker1032)"/></g><g id="ProcessOnG1034" transform="matrix(1.0,0.0,0.0,1.0,193.0,294.0)" opacity="1.0"><path id="ProcessOnPath1035" d="M0.0 0.0L58.0 0.0L58.0 30.0L0.0 30.0Z" stroke="none" stroke-width="0.0" stroke-dasharray="none" fill="none"/><g id="ProcessOnG1036" transform="matrix(1.0,0.0,0.0,1.0,0.0,6.875)"><text id="ProcessOnText1037" fill="#323232" font-size="13" x="28.0" y="13.325" font-family="Arial" font-weight="normal" font-style="normal" text-decoration="none" family="Arial" text-anchor="middle" size="13">否</text></g></g><g id="ProcessOnG1038" transform="matrix(1.0,0.0,0.0,1.0,94.25,495.0)" opacity="1.0"><path id="ProcessOnPath1039" d="M0.0 0.0L82.5 0.0L82.5 30.0L0.0 30.0Z" stroke="#323232" stroke-width="2.0" stroke-dasharray="none" fill="#ffffff"/><g id="ProcessOnG1040" transform="matrix(1.0,0.0,0.0,1.0,10.0,-1.25)"><text id="ProcessOnText1041" fill="#323232" font-size="13" x="30.25" y="13.325" font-family="Arial" font-weight="normal" font-style="normal" text-decoration="none" family="Arial" text-anchor="middle" size="13">git </text><text id="ProcessOnText1042" fill="#323232" font-size="13" x="30.25" y="29.575" font-family="Arial" font-weight="normal" font-style="normal" text-decoration="none" family="Arial" text-anchor="middle" size="13">commit</text></g></g><g id="ProcessOnG1043"><path id="ProcessOnPath1044" d="M135.5 370.0L135.5 395.5L135.5 395.5L135.5 405.7639320225002" stroke="#323232" stroke-width="2.0" stroke-dasharray="none" fill="none" marker-end="url(#ProcessOnMarker1045)"/></g><g id="ProcessOnG1047" transform="matrix(1.0,0.0,0.0,1.0,240.0,494.5)" opacity="1.0"><path id="ProcessOnPath1048" d="M0.0 0.0L95.0 0.0L95.0 31.0L0.0 31.0Z" stroke="#323232" stroke-width="2.0" stroke-dasharray="none" fill="#ffffff"/><g id="ProcessOnG1049" transform="matrix(1.0,0.0,0.0,1.0,10.0,7.375)"><text id="ProcessOnText1050" fill="#323232" font-size="13" x="36.5" y="13.325" font-family="Arial" font-weight="normal" font-style="normal" text-decoration="none" family="Arial" text-anchor="middle" size="13">pre-commit</text></g></g><g id="ProcessOnG1051"><path id="ProcessOnPath1052" d="M176.75 510.0L208.375 510.0L208.375 510.0L224.7639320225002 510.0" stroke="#323232" stroke-width="2.0" stroke-dasharray="none" fill="none" marker-end="url(#ProcessOnMarker1053)"/></g><g id="ProcessOnG1055" transform="matrix(1.0,0.0,0.0,1.0,182.5,480.0)" opacity="1.0"><path id="ProcessOnPath1056" d="M0.0 0.0L37.0 0.0L37.0 26.0L0.0 26.0Z" stroke="none" stroke-width="0.0" stroke-dasharray="none" fill="none"/><g id="ProcessOnG1057" transform="matrix(1.0,0.0,0.0,1.0,0.0,4.875)"><text id="ProcessOnText1058" fill="#323232" font-size="13" x="17.5" y="13.325" font-family="Arial" font-weight="normal" font-style="normal" text-decoration="none" family="Arial" text-anchor="middle" size="13">hook</text></g></g><g id="ProcessOnG1059" transform="matrix(1.0,0.0,0.0,1.0,387.0,464.5)" opacity="1.0"><path id="ProcessOnPath1060" d="M30.333333333333332 0.0L122.0 0.0L91.66666666666667 91.0L0.0 91.0L30.333333333333332 0.0Z" stroke="#323232" stroke-width="2.0" stroke-dasharray="none" fill="#ffffff"/><g id="ProcessOnG1061" transform="matrix(1.0,0.0,0.0,1.0,18.3,4.875)"><text id="ProcessOnText1062" fill="#323232" font-size="13" x="41.699999999999996" y="13.325" font-family="Arial" font-weight="normal" font-style="normal" text-decoration="none" family="Arial" text-anchor="middle" size="13">修改文件:</text><text id="ProcessOnText1063" fill="#323232" font-size="13" x="41.699999999999996" y="29.575" font-family="Arial" font-weight="normal" font-style="normal" text-decoration="none" family="Arial" text-anchor="middle" size="13">1.m</text><text id="ProcessOnText1064" fill="#323232" font-size="13" x="41.699999999999996" y="45.825" font-family="Arial" font-weight="normal" font-style="normal" text-decoration="none" family="Arial" text-anchor="middle" size="13">2.m</text><text id="ProcessOnText1065" fill="#323232" font-size="13" x="41.699999999999996" y="62.075" font-family="Arial" font-weight="normal" font-style="normal" text-decoration="none" family="Arial" text-anchor="middle" size="13">3.h</text><text id="ProcessOnText1066" fill="#323232" font-size="13" x="41.699999999999996" y="78.325" font-family="Arial" font-weight="normal" font-style="normal" text-decoration="none" family="Arial" text-anchor="middle" size="13">3.m</text></g></g><g id="ProcessOnG1067"><path id="ProcessOnPath1068" d="M335.0 510.0L368.58333333333326 510.0L368.58333333333326 510.0L386.93059868916686 510.0" stroke="#323232" stroke-width="2.0" stroke-dasharray="none" fill="none" marker-end="url(#ProcessOnMarker1069)"/></g><g id="ProcessOnG1071" transform="matrix(1.0,0.0,0.0,1.0,545.0,494.0)" opacity="1.0"><path id="ProcessOnPath1072" d="M0.0 0.0L95.0 0.0L95.0 32.0L0.0 32.0Z" stroke="#323232" stroke-width="2.0" stroke-dasharray="none" fill="#ffffff"/><g id="ProcessOnG1073" transform="matrix(1.0,0.0,0.0,1.0,10.0,7.875)"><text id="ProcessOnText1074" fill="#323232" font-size="13" x="36.5" y="13.325" font-family="Arial" font-weight="normal" font-style="normal" text-decoration="none" family="Arial" text-anchor="middle" size="13">clang-format</text></g></g><g id="ProcessOnG1075"><path id="ProcessOnPath1076" d="M493.83333333333337 510.0L519.4166666666667 510.0L519.4166666666667 510.0L529.7639320225002 510.0" stroke="#323232" stroke-width="2.0" stroke-dasharray="none" fill="none" marker-end="url(#ProcessOnMarker1077)"/></g><g id="ProcessOnG1079" transform="matrix(1.0,0.0,0.0,1.0,670.5,464.5)" opacity="1.0"><path id="ProcessOnPath1080" d="M30.333333333333332 0.0L134.5 0.0L104.16666666666667 91.0L0.0 91.0L30.333333333333332 0.0Z" stroke="#323232" stroke-width="2.0" stroke-dasharray="none" fill="#ffffff"/><g id="ProcessOnG1081" transform="matrix(1.0,0.0,0.0,1.0,20.175,4.875)"><text id="ProcessOnText1082" fill="#323232" font-size="13" x="46.074999999999996" y="13.325" font-family="Arial" font-weight="normal" font-style="normal" text-decoration="none" family="Arial" text-anchor="middle" size="13">格式化文件:</text><text id="ProcessOnText1083" fill="#323232" font-size="13" x="46.074999999999996" y="29.575" font-family="Arial" font-weight="normal" font-style="normal" text-decoration="none" family="Arial" text-anchor="middle" size="13">1f.m</text><text id="ProcessOnText1084" fill="#323232" font-size="13" x="46.074999999999996" y="45.825" font-family="Arial" font-weight="normal" font-style="normal" text-decoration="none" family="Arial" text-anchor="middle" size="13">2f.m</text><text id="ProcessOnText1085" fill="#323232" font-size="13" x="46.074999999999996" y="62.075" font-family="Arial" font-weight="normal" font-style="normal" text-decoration="none" family="Arial" text-anchor="middle" size="13">3f.h</text><text id="ProcessOnText1086" fill="#323232" font-size="13" x="46.074999999999996" y="78.325" font-family="Arial" font-weight="normal" font-style="normal" text-decoration="none" family="Arial" text-anchor="middle" size="13">3f.m</text></g></g><g id="ProcessOnG1087"><path id="ProcessOnPath1088" d="M640.0 510.0L662.8333333333333 510.0L662.8333333333333 510.0L670.4305986891668 510.0" stroke="#323232" stroke-width="2.0" stroke-dasharray="none" fill="none" marker-end="url(#ProcessOnMarker1089)"/></g><g id="ProcessOnG1091" transform="matrix(1.0,0.0,0.0,1.0,670.5,692.0)" opacity="1.0"><path id="ProcessOnPath1092" d="M30.333333333333332 0.0L134.5 0.0L104.16666666666667 91.0L0.0 91.0L30.333333333333332 0.0Z" stroke="#323232" stroke-width="2.0" stroke-dasharray="none" fill="#ffffff"/><g id="ProcessOnG1093" transform="matrix(1.0,0.0,0.0,1.0,20.175,4.875)"><text id="ProcessOnText1094" fill="#323232" font-size="13" x="46.074999999999996" y="13.325" font-family="Arial" font-weight="normal" font-style="normal" text-decoration="none" family="Arial" text-anchor="middle" size="13">格式化文件:</text><text id="ProcessOnText1095" fill="#323232" font-size="13" x="46.074999999999996" y="29.575" font-family="Arial" font-weight="normal" font-style="normal" text-decoration="none" family="Arial" text-anchor="middle" size="13">1.m</text><text id="ProcessOnText1096" fill="#323232" font-size="13" x="46.074999999999996" y="45.825" font-family="Arial" font-weight="normal" font-style="normal" text-decoration="none" family="Arial" text-anchor="middle" size="13">2.m</text><text id="ProcessOnText1097" fill="#323232" font-size="13" x="46.074999999999996" y="62.075" font-family="Arial" font-weight="normal" font-style="normal" text-decoration="none" family="Arial" text-anchor="middle" size="13">3.h</text><text id="ProcessOnText1098" fill="#323232" font-size="13" x="46.074999999999996" y="78.325" font-family="Arial" font-weight="normal" font-style="normal" text-decoration="none" family="Arial" text-anchor="middle" size="13">3.m</text></g></g><g id="ProcessOnG1099" transform="matrix(1.0,0.0,0.0,1.0,97.875,421.0)" opacity="1.0"><path id="ProcessOnPath1100" d="M0.0 0.0L75.25 0.0L75.25 27.0L0.0 27.0Z" stroke="#323232" stroke-width="2.0" stroke-dasharray="none" fill="#ffffff"/><g id="ProcessOnG1101" transform="matrix(1.0,0.0,0.0,1.0,10.0,5.375)"><text id="ProcessOnText1102" fill="#323232" font-size="13" x="26.625" y="13.325" font-family="Arial" font-weight="normal" font-style="normal" text-decoration="none" family="Arial" text-anchor="middle" size="13">git add</text></g></g><g id="ProcessOnG1103"><path id="ProcessOnPath1104" d="M135.5 448.0L135.5 471.5L135.5 471.5L135.5 479.7639320225002" stroke="#323232" stroke-width="2.0" stroke-dasharray="none" fill="none" marker-end="url(#ProcessOnMarker1105)"/></g><g id="ProcessOnG1107" transform="matrix(1.0,0.0,0.0,1.0,690.25,610.5)" opacity="1.0"><path id="ProcessOnPath1108" d="M0.0 0.0L95.0 0.0L95.0 32.0L0.0 32.0Z" stroke="#323232" stroke-width="2.0" stroke-dasharray="none" fill="#ffffff"/><g id="ProcessOnG1109" transform="matrix(1.0,0.0,0.0,1.0,10.0,7.875)"><text id="ProcessOnText1110" fill="#323232" font-size="13" x="36.5" y="13.325" font-family="Arial" font-weight="normal" font-style="normal" text-decoration="none" family="Arial" text-anchor="middle" size="13">回写源文件</text></g></g><g id="ProcessOnG1111"><path id="ProcessOnPath1112" d="M737.75 555.5L737.75 583.0L737.75 583.0L737.75 595.2639320225002" stroke="#323232" stroke-width="2.0" stroke-dasharray="none" fill="none" marker-end="url(#ProcessOnMarker1113)"/></g><g id="ProcessOnG1115"><path id="ProcessOnPath1116" d="M737.75 642.5L737.75 667.25L737.75 667.25L737.75 676.7639320225002" stroke="#323232" stroke-width="2.0" stroke-dasharray="none" fill="none" marker-end="url(#ProcessOnMarker1117)"/></g><g id="ProcessOnG1119" transform="matrix(1.0,0.0,0.0,1.0,94.25,722.5)" opacity="1.0"><path id="ProcessOnPath1120" d="M0.0 0.0L82.5 0.0L82.5 30.0L0.0 30.0Z" stroke="#323232" stroke-width="2.0" stroke-dasharray="none" fill="#ffffff"/><g id="ProcessOnG1121" transform="matrix(1.0,0.0,0.0,1.0,10.0,6.875)"><text id="ProcessOnText1122" fill="#323232" font-size="13" x="30.25" y="13.325" font-family="Arial" font-weight="normal" font-style="normal" text-decoration="none" family="Arial" text-anchor="middle" size="13">commit</text></g></g><g id="ProcessOnG1123"><path id="ProcessOnPath1124" d="M685.6666666666666 737.5L431.20833333333326 737.5L431.20833333333326 737.5L191.9860679774998 737.5" stroke="#323232" stroke-width="2.0" stroke-dasharray="none" fill="none" marker-end="url(#ProcessOnMarker1125)"/></g><g id="ProcessOnG1127" transform="matrix(1.0,0.0,0.0,1.0,94.25,809.5)" opacity="1.0"><path id="ProcessOnPath1128" d="M0.0 0.0L82.5 0.0L82.5 30.0L0.0 30.0Z" stroke="#323232" stroke-width="2.0" stroke-dasharray="none" fill="#ffffff"/><g id="ProcessOnG1129" transform="matrix(1.0,0.0,0.0,1.0,10.0,6.875)"><text id="ProcessOnText1130" fill="#323232" font-size="13" x="30.25" y="13.325" font-family="Arial" font-weight="normal" font-style="normal" text-decoration="none" family="Arial" text-anchor="middle" size="13">push</text></g></g><g id="ProcessOnG1131"><path id="ProcessOnPath1132" d="M135.5 752.5L135.5 781.0L135.5 781.0L135.5 794.2639320225002" stroke="#323232" stroke-width="2.0" stroke-dasharray="none" fill="none" marker-end="url(#ProcessOnMarker1133)"/></g></g></g></svg>